<svg xmlns="http://www.w3.org/2000/svg" viewBox="0 0 500 500"><g id="freepik--background-complete--inject-24"><path d="M444.71,349.14H264a5.87,5.87,0,0,1-5.86-5.86V80A5.87,5.87,0,0,1,264,74.15H444.71A5.87,5.87,0,0,1,450.57,80V343.28A5.87,5.87,0,0,1,444.71,349.14ZM264,74.4A5.61,5.61,0,0,0,258.35,80V343.28a5.61,5.61,0,0,0,5.61,5.61H444.71a5.61,5.61,0,0,0,5.61-5.61V80a5.61,5.61,0,0,0-5.61-5.61Z" style="fill:#e0e0e0"></path><path d="M236.28,349.14H55.53a5.87,5.87,0,0,1-5.86-5.86V80a5.87,5.87,0,0,1,5.86-5.86H236.28A5.87,5.87,0,0,1,242.14,80V343.28A5.87,5.87,0,0,1,236.28,349.14ZM55.53,74.4A5.61,5.61,0,0,0,49.92,80V343.28a5.61,5.61,0,0,0,5.61,5.61H236.28a5.61,5.61,0,0,0,5.61-5.61V80a5.61,5.61,0,0,0-5.61-5.61Z" style="fill:#e0e0e0"></path><rect x="0.79" y="410.21" width="500" height="0.25" style="fill:#e0e0e0"></rect><rect x="-0.28" y="157.41" width="228.08" height="93.13" transform="translate(317.74 90.22) rotate(90)" style="fill:#e0e0e0"></rect><rect x="72.3" y="95.05" width="82.92" height="217.85" style="fill:#f0f0f0"></rect><polygon points="155.22 95.05 155.22 106.13 72.3 189.03 72.3 166.85 144.12 95.05 155.22 95.05" style="fill:#fafafa"></polygon><polygon points="155.22 163.4 155.22 195.86 72.3 278.76 72.3 246.31 155.22 163.4" style="fill:#fafafa"></polygon><rect x="112.09" y="89.94" width="6.17" height="228.08" style="fill:#e0e0e0"></rect><circle cx="410.13" cy="115.35" r="26.73" style="fill:#e0e0e0"></circle><circle cx="410.13" cy="115.35" r="24.62" transform="translate(97.82 405.13) rotate(-58.57)" style="fill:#fafafa"></circle><rect x="409.27" y="92.97" width="0.92" height="5.13" style="fill:#e0e0e0"></rect><rect x="409.27" y="132.46" width="0.92" height="5.13" style="fill:#e0e0e0"></rect><rect x="387.42" y="114.82" width="5.13" height="0.92" style="fill:#e0e0e0"></rect><rect x="426.91" y="114.82" width="5.13" height="0.92" style="fill:#e0e0e0"></rect><rect x="421.13" y="100.86" width="5.13" height="0.92" transform="translate(52.44 329.24) rotate(-45)" style="fill:#e0e0e0"></rect><rect x="393.2" y="128.78" width="5.13" height="0.92" transform="translate(24.59 317.82) rotate(-45.02)" style="fill:#e0e0e0"></rect><rect x="395.31" y="98.75" width="0.92" height="5.13" transform="translate(44.32 309.61) rotate(-45.01)" style="fill:#e0e0e0"></rect><rect x="423.23" y="126.68" width="0.92" height="5.13" transform="translate(32.69 337.42) rotate(-45)" style="fill:#e0e0e0"></rect><rect x="413.37" y="112.08" width="0.79" height="9.36" transform="translate(153.54 458.98) rotate(-68.51)" style="fill:#e0e0e0"></rect><polygon points="410.13 115.68 395.77 115.68 395.77 114.89 409.34 114.89 409.34 103.74 410.13 103.74 410.13 115.68" style="fill:#e0e0e0"></polygon><path d="M239.6,217.54h0Z" style="fill:#7f3e3b"></path><path d="M384.7,360.2s-7.08,2-14.89-8.11c-5.65-7.32-15.65-22.93-29.44-23.2,0,0,16.37-7.09,30.81.13S393.33,355,384.7,360.2" style="fill:#f5f5f5"></path><path d="M388.92,389.53h0a.46.46,0,0,1-.44-.49,107.3,107.3,0,0,0-1.48-21c-1.79-10.2-6-23.65-16-29.85a.46.46,0,1,1,.49-.79c4.55,2.82,8.33,7.31,11.22,13.33a66.21,66.21,0,0,1,5.2,17.17,106.92,106.92,0,0,1,1.49,21.15A.47.47,0,0,1,388.92,389.53Z" style="fill:#e0e0e0"></path><path d="M390.07,337.9s7.17-1.67,9.08-14.32c1.38-9.14,2.52-27.65,14.45-34.58,0,0-17.75,1.75-26.87,15.08s-6.76,33.43,3.34,33.82" style="fill:#f5f5f5"></path><path d="M399.93,390.35a.44.44,0,0,1-.43-.3,246.75,246.75,0,0,1-8.23-29.25,157.64,157.64,0,0,1-3.56-25.68c-.42-9.53.53-17.43,2.82-23.48a.46.46,0,0,1,.6-.28.47.47,0,0,1,.27.61c-5.08,13.47-2.38,33.89.79,48.64a248.33,248.33,0,0,0,8.18,29.12.46.46,0,0,1-.28.6A.41.41,0,0,1,399.93,390.35Z" style="fill:#e0e0e0"></path><path d="M402.61,344.1s7.3,1,13.6-10.14c4.56-8,12.25-24.91,25.86-27.12,0,0-17.2-4.71-30.48,4.48s-18.27,28.79-9,32.78" style="fill:#f5f5f5"></path><path d="M403.73,390.35a.46.46,0,0,1-.46-.37,161.33,161.33,0,0,1-2.49-27.14A102.77,102.77,0,0,1,403,339.71c1.93-8.41,5.09-15.13,9.4-20a.47.47,0,0,1,.66,0,.46.46,0,0,1,0,.66c-9.55,10.74-11.47,29-11.41,42.49a160.42,160.42,0,0,0,2.47,27,.47.47,0,0,1-.37.55Z" style="fill:#e0e0e0"></path><path d="M415.15,361.12s7,2.42,15.34-7.23c6.06-7,16.95-22,30.73-21.45,0,0-15.92-8-30.76-1.66s-23.63,24.59-15.31,30.34" style="fill:#f5f5f5"></path><path d="M408.38,390.35a.47.47,0,0,1-.47-.45,80,80,0,0,1,2.34-19,67.43,67.43,0,0,1,6.39-16.62,47.92,47.92,0,0,1,13-15.13.47.47,0,0,1,.66.09.47.47,0,0,1-.09.65c-11.5,8.64-16.69,21.76-19,31.24a79.05,79.05,0,0,0-2.32,18.7.46.46,0,0,1-.45.48Z" style="fill:#e0e0e0"></path><path d="M377.81,410.34h45.72a12.89,12.89,0,0,0,6.86-8.06,12.55,12.55,0,0,0,.52-3.34c.07-3.69-1.59-7.28-5.29-10.75H375.45c-3.3,3.11-5,6.3-5.25,9.59a12,12,0,0,0,.11,2.86A12.91,12.91,0,0,0,377.81,410.34Z" style="fill:#e0e0e0"></path><rect x="329.34" y="143.43" width="70.01" height="132.44" transform="translate(574 -154.7) rotate(90)" style="fill:#e6e6e6"></rect><rect x="335.83" y="149.91" width="57.04" height="119.47" transform="translate(574 -154.7) rotate(90)" style="fill:#fff"></rect><rect x="340.56" y="155.63" width="47.57" height="108.04" transform="translate(574 -154.7) rotate(90)" style="fill:#f5f5f5"></rect><circle cx="370.87" cy="215.25" r="18.19" transform="translate(84.25 534.19) rotate(-78.19)" style="fill:#fff"></circle><path d="M371.86,218.34s19.82-13.85,46.51-14.09v29.19H385.66Z" style="fill:#e6e6e6"></path><path d="M310.33,215.64s21.08-10.47,42.68-6c23.06,4.79,40.7,23.79,40.7,23.79H310.33Z" style="fill:#e0e0e0"></path><rect x="282.63" y="88.95" width="69.56" height="69.56" style="fill:#e0e0e0"></rect><rect x="288.58" y="94.9" width="57.66" height="57.66" style="fill:#fff"></rect><rect x="294.76" y="101.95" width="45.27" height="43.55" style="fill:#f5f5f5"></rect><circle cx="317.39" cy="122.35" r="14.02" style="fill:#fff"></circle><path d="M314.27,122.93S325,112.18,340,112.9v32.6Z" style="fill:#e0e0e0"></path><path d="M294.76,116.27a32.43,32.43,0,0,1,25.33,7.46A121.53,121.53,0,0,1,340,145.5H294.76Z" style="fill:#f5f5f5"></path></g><g id="freepik--Table--inject-24"><rect x="49.11" y="422.27" width="423.44" height="15.44" rx="7.6" style="fill:#e0e0e0"></rect><path d="M452.22,446.72H72.94a9,9,0,0,1-9-9H461.22A9,9,0,0,1,452.22,446.72Z" style="fill:#ebebeb"></path></g><g id="freepik--Sparkles--inject-24"><path d="M186.79,168.2C180,169.57,179,171,178,180.32a.14.14,0,0,1-.28,0c-1-9.35-2.05-10.75-8.8-12.12a.14.14,0,0,1,0-.28c6.75-1.37,7.83-2.77,8.8-12.12a.14.14,0,0,1,.28,0c1,9.35,2,10.75,8.8,12.12A.14.14,0,0,1,186.79,168.2Z" style="fill:#9222DC"></path><path d="M186.79,168.2C180,169.57,179,171,178,180.32a.14.14,0,0,1-.28,0c-1-9.35-2.05-10.75-8.8-12.12a.14.14,0,0,1,0-.28c6.75-1.37,7.83-2.77,8.8-12.12a.14.14,0,0,1,.28,0c1,9.35,2,10.75,8.8,12.12A.14.14,0,0,1,186.79,168.2Z" style="fill:#fff;opacity:0.4"></path><path d="M379.1,267.44c-6.76,1.37-7.83,2.77-8.8,12.11a.15.15,0,0,1-.29,0c-1-9.34-2-10.74-8.8-12.11a.15.15,0,0,1,0-.29C368,265.78,369,264.38,370,255a.15.15,0,0,1,.29,0c1,9.34,2,10.74,8.8,12.11A.15.15,0,0,1,379.1,267.44Z" style="fill:#9222DC"></path><path d="M379.1,267.44c-6.76,1.37-7.83,2.77-8.8,12.11a.15.15,0,0,1-.29,0c-1-9.34-2-10.74-8.8-12.11a.15.15,0,0,1,0-.29C368,265.78,369,264.38,370,255a.15.15,0,0,1,.29,0c1,9.34,2,10.74,8.8,12.11A.15.15,0,0,1,379.1,267.44Z" style="fill:#fff;opacity:0.4"></path></g><g id="freepik--Plant--inject-24"><path d="M87.67,390.83s-11.15,2.46-9.49-5.31,1.53-10.64-3-14.17-9.08-5.28-5.61-10.88-3.11-9.94-6.51-13,.43-5.28,1.33-11-5.22-4.84-5.7-12,6.8-15.55.54-25.42c0,0,8.41,4.36,11.17,12s.54,13.58,5.51,16.5,8.08,7.95,6.39,13.12.71,7.91,4.78,11.68,3,5.27,2.48,9.88.52,3.52,5.18,9.82S99.52,388.76,87.67,390.83Z" style="fill:#9222DC"></path><path d="M89.25,390.48a.43.43,0,0,1,0-.12L66.9,322.69a.56.56,0,0,1,.35-.7h0a.57.57,0,0,1,.7.36L90.25,390a.51.51,0,0,1,0,.17Z" style="opacity:0.4"></path><path d="M107.77,390.69s11.08,2.45,9.44-5.28-1.53-10.59,3-14.1,9-5.25,5.59-10.81,3.1-9.9,6.48-12.89-.44-5.26-1.33-10.92,5.19-4.81,5.67-11.94-6.76-15.47-.54-25.29c0,0-8.36,4.34-11.11,12s-.53,13.5-5.47,16.4-8,7.91-6.36,13.05-.71,7.87-4.76,11.62-3,5.24-2.47,9.83-.51,3.5-5.15,9.77S96,388.63,107.77,390.69Z" style="fill:#9222DC"></path><path d="M105.17,390a.45.45,0,0,1,0-.16l22.17-67.31a.55.55,0,0,1,.69-.35h0a.55.55,0,0,1,.35.7l-22.17,67.3-.06.12Z" style="opacity:0.4"></path><path d="M95.46,389.28s-12.75-1.06-8.39-8.83,5.17-10.89,1.49-16.18-8-8.67-2.4-13.51,0-11.68-2.67-16,2.22-5.51,5.07-11.31-4-6.91-2.12-14.75,12.45-14.4,9-27.05c0,0,7.56,7.47,8,16.59s-3.94,14.72.41,19.49,6,11.2,2.49,16.18-1.86,8.71,1.25,14.1,1.45,6.64-.63,11.41-.62,3.94,2.29,12.23S108.85,391,95.46,389.28Z" style="fill:#9222DC"></path><path d="M97.28,389.44a.77.77,0,0,1,0-.15l-1.41-79.88a.62.62,0,0,1,.61-.63h0a.63.63,0,0,1,.63.61l1.4,79.88a1.1,1.1,0,0,1,0,.18Z" style="opacity:0.4"></path><polygon points="64.88 379.29 65.14 380.19 65.73 382.15 67.4 387.78 67.98 389.74 69.7 395.52 70.29 397.48 77.66 422.27 117.95 422.27 125.33 397.48 125.91 395.52 127.63 389.74 128.22 387.78 129.89 382.15 130.47 380.19 130.74 379.29 64.88 379.29" style="fill:#9222DC"></polygon><g style="opacity:0.2"><polygon points="64.88 379.29 65.14 380.19 65.73 382.15 67.4 387.78 67.98 389.74 69.7 395.52 70.29 397.48 77.66 422.27 117.95 422.27 125.33 397.48 125.91 395.52 127.63 389.74 128.22 387.78 129.89 382.15 130.47 380.19 130.74 379.29 64.88 379.29"></polygon></g><rect x="61.15" y="376.33" width="72.33" height="8" style="fill:#9222DC"></rect><rect x="61.15" y="376.33" width="72.33" height="8" style="fill:#fff;opacity:0.2"></rect></g><g id="freepik--Character--inject-24"><path d="M138.52,243.9a12.26,12.26,0,0,1-1.8,3.1,41.71,41.71,0,0,1-8,6.32,4.6,4.6,0,0,1-3.23.65c-4-.59-8.23-5.66-11.49-8-6.33-4.58-10.67-5.21-10.46-10.19.13-3.07,3.78-3.29,3.78-3.29s-1.87-2.7.1-4.06,4.87-.58,4.87-.58a101.9,101.9,0,0,0-6.58-8.78c-1.35-1.64-3.6-3.6-4.13-5.65-.37-1.42.26-2.4,1.23-2.48,3.28-.24,14.34,12.84,15,13.65-.42-.65-5.76-8.93-7.26-13.43-1.57-4.68,2-4,2-4,3.17.71,14,19.43,16.2,20.22,0,0,3.11-2.76,5.44-1.52s4.64,10.32,4.64,10.32A11.34,11.34,0,0,1,138.52,243.9Z" style="fill:#7f3e3b"></path><g style="opacity:0.2"><path d="M135.68,231.13a.47.47,0,0,0-.67.11c-2.2,3-5.3,5.52-7.88,6.31-.31.08-.61.15-.87.19a2.15,2.15,0,0,1-1.61-.26,1.38,1.38,0,0,1-.5-1,4.42,4.42,0,0,1,.29-2,6.92,6.92,0,0,1,.4-.9,17.64,17.64,0,0,1,3.88-4.7.48.48,0,1,0-.61-.73,18.77,18.77,0,0,0-4,4.81,22.28,22.28,0,0,0-4.75-4.57.49.49,0,1,0-.52.82,22.49,22.49,0,0,1,4.83,4.69c0,.09-.08.18-.11.27a5.25,5.25,0,0,0-.34,2.42,2.33,2.33,0,0,0,.87,1.64,3,3,0,0,0,2.32.44l.14,0a24.16,24.16,0,0,1,2.25,9.13.49.49,0,0,0,.49.46l.11,0a.47.47,0,0,0,.34-.47,25.42,25.42,0,0,0-2.26-9.3c2.8-.88,6-3.42,8.33-6.65A.48.48,0,0,0,135.68,231.13Z"></path><path d="M113.56,228a.49.49,0,0,0-.67.08.47.47,0,0,0,.08.67c1.56,1.23,5.63,4.87,5.72,6.92a1,1,0,0,1-.31.79c-1.35,1.26-4.76-.43-6-1.18a.48.48,0,0,0-.59.74c1.25,1.24,4.51,5.11,3.13,6.55-1,1-3.61.07-4.54-.38a.49.49,0,0,0-.64.22.47.47,0,0,0,.22.64c.33.16,2.8,1.3,4.58.8a2.33,2.33,0,0,0,1.07-.62c1.49-1.55-.08-4.21-1.5-6,1.59.63,3.65,1.09,4.88-.06a1.86,1.86,0,0,0,.61-1.52C119.52,232.75,114.17,228.45,113.56,228Z"></path><path d="M116.6,227.42a.53.53,0,0,0,.33,0,.48.48,0,0,0,.3-.26,7.4,7.4,0,0,1,3.8-3.29.47.47,0,0,0,.25-.62.47.47,0,0,0-.62-.26,8.23,8.23,0,0,0-4.3,3.78A.48.48,0,0,0,116.6,227.42Z"></path></g><path d="M207.19,297.76q-3.76,5.46-7.68,10.89c-2.18,3-4.38,6-6.72,9-1.18,1.52-2.36,3-3.69,4.62l-1,1.2L187,324.71l-.28.32-.35.36-.69.73-.35.36-.18.18-.25.25-1.07,1-.55.48a14.84,14.84,0,0,1-3,2,15.09,15.09,0,0,1-7.08,1.64c-.55,0-1,0-1.47-.1l-.71-.09-.6-.12c-.39-.08-.82-.18-1.16-.27l-1-.31-.85-.32-.76-.34c-.41-.2-.87-.44-1.22-.64a19.72,19.72,0,0,1-3.11-2.23,23.67,23.67,0,0,1-1.87-1.79,39.41,39.41,0,0,1-2.58-3.05c-.73-.95-1.37-1.86-2-2.75a114.68,114.68,0,0,1-6.11-10.27C146.16,303,143,296.39,140,289.68c-5.27-11.8-10.09-23.62-14.46-35.71,1.1.17,1.25-3.53,2.3-4.18a18.8,18.8,0,0,0,6.85-7.24s3,3.28,3.84,1.35c7.15,11.74,14.23,23.62,21.42,35.17,1.86,3,3.77,6,5.66,8.9s3.79,5.82,5.73,8.6l.6.85c1.06-1.68,2.11-3.4,3.16-5.12,3.68-6,7.34-12.06,11-18.14l.46-.77c2.72,6.33,9.3,18.88,20.4,24Z" style="fill:#7f3e3b"></path><path d="M138.52,243.9a12.26,12.26,0,0,1-1.8,3.1,41.71,41.71,0,0,1-8,6.32,4.6,4.6,0,0,1-3.23.65q-.89-2.46-1.75-4.94l6.68-.31,1.17-.76,6.07-5.41Z" style="fill:#7f3e3b"></path><path d="M235.07,253.83C232.72,258,230.3,262,227.84,266q-2,3.22-4,6.43L218,281.58l-.69,1.05-4.48,6.79-.82,1.24-1.13,1.67c-.2.29-.39.59-.6.88-1,1.45-2,2.91-3,4.36,0,.06-.09.12-.13.19l-.22-.35c-11.1-5.14-17.68-17.69-20.4-24q1.37-2.26,2.74-4.53c.21-.35.42-.7.64-1.05,5.46-9,11-18.1,16.67-27,.64-1,1.29-2,1.94-3l2.62,1.59,10.64,6.45,3.62,2.19Z" style="fill:#7f3e3b"></path><path d="M211.83,359.78s-15,30.91-17.62,62.49H323.44s10.71-40.72-8.57-66.81Z"></path><path d="M340.8,265c-2.74,5.74-7.73,2.49-8.23,8.48s2,6.48-2.24,10.47-5.48,6-3.24,10.72-4,16.45-18.7,3-35.9-5.48-65.69-16.45-11.09-58.84-15.24-62.08,4.9-11-.53-13.7c-1.43-.72-3.1.31-4.55.54a11.56,11.56,0,0,1-12.86-14.62l.09-.3c3.07-9.94-4.46-8.24-5.18-14.46-.78-6.89,7-9.17,3.09-13.22-3.77-3.88-7.54-8.68-3.44-15.17s-3.08-10.73-.54-15.89c2.78-5.63,6.56-3.42,8.26-8.19s-.84-8.89,2.88-12.62c4-4,10.67.63,12.65-2.78s.26-8.2,7.1-10.24,10.67,5.8,13.7,3.75,3.36-7.5,10.88-7.5,7.85,9.55,12.63,8.52,4.71-2.67,10-1.54c8.64,1.83,5,9.39,9.81,11.1s9.21,1.36,11.26,7.51-3.07,9.55,0,13,6.83,5.1,6.2,11.07-4.71,7.19-2.23,11.71,4.31,9.83,0,15.7,2.92,4.28,3.17,10.61a9.92,9.92,0,0,1-1.8,5.49,3.87,3.87,0,0,0,1.8,6.51c7.48,2.58-.41,10.09,5.59,12.42,4.84,1.88,7.68-.65,8.64,6.83,1.16,9.08,4.19,3.52,7.93,8.25s-.71,9.54,5.25,12.67c5.73,3,6.84,7.5,3.43,14.67S343.54,259.23,340.8,265Z"></path><path d="M220,169.27a.45.45,0,0,1,.09.56A9.1,9.1,0,1,0,231.78,177a9.94,9.94,0,0,0-6-7c.15-.15.28-.32.48-.53a10,10,0,0,1,6.07,7.46,9.69,9.69,0,1,1-12.39-7.6Z" style="fill:#fff"></path><path d="M308.83,144.43l-1-.24c2.71-11.43-7.59-15.72-8-15.9l.38-.95C300.3,127.38,311.74,132.12,308.83,144.43Z"></path><path d="M222.18,209.65c-4.39,0-9.46-1.1-12.8-5.35-7.57-9.64.66-22.18.75-22.31l.85.57c-.08.12-7.9,12.05-.79,21.1,6.38,8.12,20.25,3.75,20.39,3.71l.31,1A31.41,31.41,0,0,1,222.18,209.65Z"></path><path d="M213.23,130.46c-.06-.06-6.41-6.2-3.18-13.68a11.12,11.12,0,0,1,9.84-7l0,1a10,10,0,0,0-8.87,6.39c-2.95,6.81,2.88,12.47,2.94,12.53Z"></path><path d="M225,251.49l-7.72,31.14-4.15,16.72a24.53,24.53,0,0,1-5.85-1.78l-.35-.16c-11.1-5.14-17.68-17.69-20.4-24-1-2.31-1.47-3.79-1.47-3.79l2.63-4.46h0l.08-.11,22.34-37.79.6-1,11.07,19.58Z" style="fill:#9222DC"></path><path d="M213.17,299.35a24.53,24.53,0,0,1-5.85-1.78l-.35-.16c-11.1-5.14-17.68-17.69-20.4-24-1-2.31-1.47-3.79-1.47-3.79l2.63-4.46h0l.08-.11,22.34-37.79.6-1,.43,13.13,1.66,50.07Z" style="opacity:0.30000000000000004"></path><g style="opacity:0.2"><path d="M210.82,293.34c-13.29-2.76-22.72-27.24-23.12-28.28l.93-.35c.1.25,9.64,25,22.39,27.65Z"></path></g><path d="M317.56,287.37c-.3,5.59-.43,10.88-.44,15.9,0,22.87,2.43,40,2.41,51.66a6.16,6.16,0,0,1-5.39,6.1c-41.74,5.12-89.5,6.37-103.13.53a10.62,10.62,0,0,1-2.17-1.19c-7-9.29.29-59.64-1.17-61.87l-.48-.74-.22-.35a49.37,49.37,0,0,1-4.37-8.63q-.4-1.08-.75-2.13c-5.42-17.11,4.33-28,4.33-35.82,0-3.59.13-6.94.44-10a38.46,38.46,0,0,1,3.53-13.57c3-5.95,8.11-10.09,16.48-12.36a51,51,0,0,1,5.94-1.21c3.92-.58,8-1.07,12-1.47l2.18-.21,2.63-.22h0l.4,0,3-.2,1-.05,2.85-.13,2.86-.09c4.82-.11,9.67-.07,14.7.07l3.08.1c1.42,0,2.86.1,4.31.16h0l3.64.16,2.69.12,2.3.11c4.15.2,8.19.52,12,.91a24,24,0,0,1,10.12,3.38,24.22,24.22,0,0,1,11.15,25.66c-1.81,8.64-3.15,16.84-4.11,24.6h0c-.07.46-.12.92-.17,1.37q-.81,6.68-1.28,12.9a.22.22,0,0,1,0,.08q-.24,3.3-.41,6.47S317.55,287.37,317.56,287.37Z" style="fill:#9222DC"></path><g style="opacity:0.2"><path d="M305.23,361.75l-1-.21c6.84-32.67-2.74-94-2.83-94.63l1-.16C302.51,267.37,312.11,328.89,305.23,361.75Z"></path></g><path d="M314.66,373.07a50,50,0,0,1-9.43-1.66c-4.48-1.33-13,3.66-15.12,6.82s8.64-1.66,11.14,0,10,19.28,12.63,21.44,12.17-13,12.17-13Z" style="fill:#7f3e3b"></path><path d="M288,211.87c-3.59,2.84-9.54,10.5-20.91,19.16C254.2,240.81,235.23,246,234,233.25c-.88-8.9,5.73-16.52,10.6-21.06l2.18-.21C260.25,210.75,272.85,211.16,288,211.87Z" style="fill:#fff"></path><path d="M281.62,211.59s-4.76,3.4-10.92,8.25l0,0c-12.13,10.61-24.7,14.67-28.45,11.32-4.36-3.92,3.35-13.26,4.34-14.46,0,0,0,0,0,0l.12-.13,0,0h0c3.29-3.92,3.62-7.87,2.84-12.53a38.3,38.3,0,0,0-2.74-8.82l3.74-4.38L270.19,171C269.7,184.21,271.3,204.43,281.62,211.59Z" style="fill:#7f3e3b"></path><g style="opacity:0.2"><path d="M249.6,204a38.3,38.3,0,0,0-2.74-8.82l3.75-4.38,10.72,1.49S257.51,200.62,249.6,204Z"></path></g><path d="M276,148.07c-.78,21.69-.65,30.88-11.1,42.26-15.73,17.12-41.69,11.38-47.28-10.11-5-19.35-2.93-51.57,17.64-60.7,20.28-9,41.51,6.86,40.74,28.55Z" style="fill:#7f3e3b"></path><path d="M225.61,157.36a.5.5,0,0,1-.23,0,.69.69,0,0,1-.64-.45,4,4,0,0,0-2.74-2.39,3.94,3.94,0,0,0-3.25.68c-1.74,1.9-3.95-.9-3.95-.9l2.52.49a5.08,5.08,0,0,1,5-1.59,5.37,5.37,0,0,1,3.72,3.26A.65.65,0,0,1,225.61,157.36Z"></path><path d="M249.3,153.13s-2.37,3-4.22,1a4.18,4.18,0,0,0-3.46-.73,4.29,4.29,0,0,0-2.94,2.56.72.72,0,0,1-.68.48.75.75,0,0,1-.24,0,.73.73,0,0,1-.43-.92,5.75,5.75,0,0,1,4-3.48,5.45,5.45,0,0,1,5.32,1.68Z"></path><path d="M231.61,179.16h0a.74.74,0,0,1-.71-.77.75.75,0,0,1,.77-.72c.31,0,7.73.2,9.11-7.59a.75.75,0,0,1,1.47.26C240.63,179.42,231.71,179.16,231.61,179.16Z"></path><path d="M277.14,154.12c3-2.49,3.84-12.08,1.47-18.93s-4.74-19.7-19.95-22.19-33.72-5.68-42.34,16c0,0-.83,5.6,2.31,7.4,3.92,2.24,4.83-4.08,8.16-5.49,2.22-.94,2.06,2.74,6.48,2.63,2.92-.08,2.4-3.83,5.87-3.83s2.8,3.43,6.54,4.69c3.21,1.08,4.73-2.24,6.95-1.08s.38,3.74,3,6,4.22-.06,6.46,1.56-3.15,7-1.3,9.59c1.65,2.33,6.16,1.09,5.17,4.81-1.69,6.33-8.5,10.32-5.71,18s12.66,4.13,12.66,4.13C264,176.12,257.45,170.64,277.14,154.12Z"></path><path d="M228.51,155.27s-2.92,4.74-6.12,8.88a2.64,2.64,0,0,0,.94,4,26.06,26.06,0,0,0,5.52,1.73Z" style="fill:#630f0f"></path><path d="M284.09,162.88a14,14,0,0,1-8.35,7.85c-4.78,1.46-7.3-3.76-6.08-9.15,1.1-4.85,4.91-11.46,9.76-10.53s6.76,7,4.67,11.83Z" style="fill:#7f3e3b"></path><path d="M275.33,166.6a.44.44,0,0,1,.1.56,9.1,9.1,0,1,0,11.73,7.13,9.93,9.93,0,0,0-6-7c.15-.15.28-.32.48-.53a10.09,10.09,0,0,1,6.07,7.46,9.7,9.7,0,1,1-12.4-7.6Z" style="fill:#fff"></path><path d="M250.72,147.33a1,1,0,0,1-.72-.39,8.26,8.26,0,0,0-6.69-3.34,1,1,0,1,1-.18-2.06,10.25,10.25,0,0,1,8.5,4.12,1,1,0,0,1-.17,1.46,1,1,0,0,1-.74.21Z"></path><path d="M215.52,146.33a1,1,0,0,1-.7-1.77,10.32,10.32,0,0,1,9-3,1,1,0,0,1-.44,2,8.21,8.21,0,0,0-7.07,2.46,1,1,0,0,1-.76.3Z"></path><path d="M323.71,235.69c7.05,11.46,13.54,23.1,19.82,35,3.17,5.93,6.17,11.95,9.18,18,1.51,3,2.93,6.14,4.38,9.28s2.84,6.32,4.25,9.8c.35.88.68,1.78,1,2.76s.69,2,1.08,3.28l.14.49.15.58.16.59.16.76.08.39.1.53c.08.5.14,1,.18,1.52a9.57,9.57,0,0,1,.05,1.24c0,.38,0,.75,0,1.12a23.72,23.72,0,0,1-1,5.25c-.38,1.31-.77,2.41-1.17,3.42s-.8,2-1.21,2.87c-.82,1.82-1.64,3.49-2.5,5.11-1.72,3.22-3.49,6.24-5.29,9.22s-3.63,5.87-5.51,8.72c-7.51,11.4-15.4,22.24-24,32.79l-13-8.2c5.55-12,11.34-24,16.75-35.78,2.64-5.92,5.35-11.83,7.44-17.51.51-1.4,1-2.78,1.42-4.06.2-.63.39-1.26.52-1.8a10.87,10.87,0,0,0,.27-1.35c0-.29,0-.52-.14.34,0,.16,0,.33,0,.49s0,.26,0,.63a6.91,6.91,0,0,0,.11.9.65.65,0,0,1,0,.22v.08l0,.16h0l-.05-.11-.66-1.38-.92-1.83c-1.31-2.59-2.84-5.39-4.4-8.16l-4.81-8.41c-3.22-5.66-6.61-11.29-9.89-17-6.63-11.36-13.31-22.81-19.62-34.34Z" style="fill:#7f3e3b"></path><path d="M343.43,262.19a127.56,127.56,0,0,1-14.85,12l-.26.19a186.48,186.48,0,0,1-22.48,12.88s-21.58-20.54-24-44.44c-2.21-21.66,15-27.24,15-27.24C325.61,205.16,343.43,262.19,343.43,262.19Z" style="fill:#9222DC"></path><path d="M343.43,262.19a127.56,127.56,0,0,1-14.85,12l-.26.19a159.54,159.54,0,0,1-22.48,12.88s-21.58-20.54-24-44.44c-2.21-21.66,15-27.24,15-27.24C325.61,205.16,343.43,262.19,343.43,262.19Z" style="opacity:0.2"></path><g style="opacity:0.2"><path d="M299.25,279.85l-.45-.93c11.08-5.45,28.82-17.05,39.86-27.81l.72.75C328.26,262.7,310.41,274.37,299.25,279.85Z"></path></g></g></svg>
